<svg width="110" height="110" viewBox="0 0 110 110" fill="none" xmlns="http://www.w3.org/2000/svg">
<circle cx="55" cy="55" r="35" fill="#E5989B"/>
<circle cx="55" cy="55" r="45" fill="#E5989B" fill-opacity="0.6"/>
<circle cx="55" cy="55" r="55" fill="#E5989B" fill-opacity="0.3"/>
<path fill-rule="evenodd" clip-rule="evenodd" d="M41 39H69C72.3137 39 75 41.6863 75 45V53C75 54.1046 74.1046 55 73 55C71.8954 55 71 54.1046 71 53V51H39V63C39 64.1046 39.8954 65 41 65H49C50.1046 65 51 65.8954 51 67C51 68.1046 50.1046 69 49 69H41C37.6863 69 35 66.3137 35 63V45C35 41.6863 37.6863 39 41 39ZM69.3573 61.2353L66.066 64.5265L69.3573 67.8728C70.0701 68.59 70.0701 69.7482 69.3573 70.4653C68.6401 71.1782 67.4819 71.1782 66.7647 70.4653L63.4735 67.1741L60.1272 70.4286C59.41 71.1414 58.2518 71.1414 57.5347 70.4286C56.8218 69.7114 56.8218 68.5532 57.5347 67.836L60.8259 64.5265L57.5714 61.2353C56.9467 60.5058 56.9887 59.4183 57.6679 58.7392C58.347 58.06 59.4344 58.018 60.164 58.6427L63.4735 61.934L66.7647 58.6427C67.2141 58.118 67.9196 57.8895 68.5913 58.0511C69.263 58.2126 69.7874 58.737 69.9489 59.4087C70.1105 60.0804 69.882 60.7859 69.3573 61.2353ZM71 47H39V45C39 43.8954 39.8954 43 41 43H69C70.1046 43 71 43.8954 71 45V47ZM51 55H45C43.8954 55 43 55.8954 43 57C43 58.1046 43.8954 59 45 59H51C52.1046 59 53 58.1046 53 57C53 55.8954 52.1046 55 51 55Z" fill="white"/>
</svg>
