<svg width="78" height="78" viewBox="0 0 78 78" fill="none" xmlns="http://www.w3.org/2000/svg">
<g clip-path="url(#clip0_49_2084)">
<path d="M57.6648 48.3274L63.453 43.2737C64.467 42.3897 64.5743 40.8492 63.687 39.8352C62.803 38.8212 61.2625 38.7172 60.2453 39.6012L49.582 48.9092C49.0555 49.3707 48.75 50.0402 48.75 50.7454C48.75 51.4507 49.0555 52.1202 49.5852 52.5817L60.2485 61.8864C60.7133 62.2894 61.282 62.4877 61.8507 62.4877C62.53 62.4877 63.206 62.2049 63.687 61.6524C64.571 60.6384 64.467 59.0979 63.453 58.2139L57.7395 53.2284C66.261 53.4852 73.1218 60.5994 73.1218 69.3549V75.5592C73.1218 76.9047 74.2138 77.9967 75.5593 77.9967C76.9048 77.9967 78 76.9079 78 75.5624V69.3582C78 57.8824 68.913 48.5387 57.6648 48.3274Z" fill="#6D6875"/>
<path d="M29.9651 0L14.1701 0.065C12.1226 0.065 10.2051 1.2025 9.2301 2.99L0.975098 17.94L28.3726 17.875L29.9651 0Z" fill="#6D6875"/>
<path d="M63.9598 17.8101L55.6073 2.86012C54.5998 1.07262 52.7148 -0.0648804 50.6348 -0.0648804L34.8398 0.000119627L36.4973 17.8751L63.9598 17.8101Z" fill="#6D6875"/>
<path d="M64.9998 33.0851C64.0248 32.6951 62.9523 32.5001 61.8473 32.5001C59.7023 32.5001 57.6223 33.2801 55.9648 34.7101L45.3048 44.0051C43.3548 45.6951 42.2498 48.1651 42.2498 50.7326C42.2498 53.3326 43.3548 55.7701 45.3048 57.4926L53.8848 64.9676L5.23229 65.0976C5.19979 65.0976 5.19979 65.0976 5.19979 65.0976C2.40479 65.0976 0.0972852 62.7901 0.0972852 59.9626L-0.0327148 22.8151L30.0298 22.7501H34.9048L64.9673 22.6526L64.9998 33.0851Z" fill="#6D6875"/>
</g>
<defs>
<clipPath id="clip0_49_2084">
<rect width="78" height="78" fill="white"/>
</clipPath>
</defs>
</svg>
