<svg width="23" height="24" viewBox="0 0 23 24" fill="none" xmlns="http://www.w3.org/2000/svg">
<path d="M5.37951 21.7333C4.32292 21.7334 3.30865 21.3 2.55562 20.5266L2.47257 20.4399C2.09422 20.0547 1.79359 19.5943 1.58841 19.086C1.38322 18.5776 1.27763 18.0315 1.27784 17.4799C1.27651 16.8827 1.38876 16.2912 1.6081 15.7396C1.82744 15.188 2.1495 14.6874 2.55562 14.2666L12.4584 4.04659C13.4646 2.95344 14.842 2.31643 16.2939 2.27279C17.7458 2.22914 19.1561 2.78236 20.2209 3.81326C20.7011 4.31312 21.0812 4.90773 21.339 5.56243C21.5967 6.21713 21.727 6.91881 21.7223 7.62659C21.7166 8.41706 21.5613 9.19857 21.2652 9.92621C20.9692 10.6538 20.5383 11.3133 19.9973 11.8666L11.0976 21.0666C11.0422 21.1442 10.9714 21.2084 10.8899 21.2546C10.8084 21.3008 10.7183 21.328 10.6258 21.3342C10.5332 21.3404 10.4405 21.3255 10.354 21.2905C10.2676 21.2556 10.1894 21.2014 10.125 21.1317C10.0607 21.0621 10.0116 20.9787 9.9812 20.8873C9.95082 20.7958 9.93988 20.6986 9.94913 20.6023C9.95838 20.5061 9.98761 20.413 10.0348 20.3297C10.082 20.2464 10.1459 20.1748 10.2223 20.1199L19.0965 10.9199C19.5179 10.4906 19.8539 9.97873 20.0853 9.41356C20.3166 8.8484 20.4387 8.24112 20.4445 7.62659C20.4491 7.09476 20.3521 6.5673 20.159 6.07508C19.9659 5.58285 19.6807 5.13575 19.3201 4.75993C18.4945 3.97517 17.4067 3.55994 16.2907 3.60358C15.1748 3.64722 14.1198 4.14623 13.3528 4.99326L3.48201 15.2133C3.19113 15.508 2.95941 15.8602 2.80035 16.2494C2.6413 16.6385 2.55811 17.0569 2.55562 17.4799C2.55426 17.8514 2.62358 18.2195 2.75957 18.5628C2.89556 18.9061 3.09552 19.2179 3.34784 19.4799L3.4309 19.5666C4.00255 20.1159 4.75803 20.409 5.53473 20.3828C6.31142 20.3566 7.0472 20.0132 7.58368 19.4266L16.1128 10.6266C16.2741 10.4564 16.4013 10.2544 16.4869 10.0323C16.5724 9.81023 16.6147 9.57258 16.6112 9.33326C16.6126 9.12539 16.5743 8.91931 16.4986 8.72703C16.423 8.53474 16.3114 8.36009 16.1703 8.21326C15.8477 7.90453 15.4216 7.74058 14.9842 7.7568C14.5467 7.77301 14.1328 7.96809 13.832 8.29993L7.95423 14.3799C7.83393 14.5046 7.67109 14.5743 7.50156 14.5736C7.33202 14.573 7.16966 14.5021 7.0502 14.3766C6.93075 14.2511 6.86397 14.0811 6.86457 13.9042C6.86517 13.7273 6.93309 13.5579 7.0534 13.4333L12.9567 7.33326C13.4979 6.75481 14.2352 6.42152 15.0097 6.40531C15.7842 6.3891 16.5338 6.69125 17.0967 7.24659C17.3556 7.52159 17.5591 7.84791 17.6952 8.20629C17.8312 8.56468 17.8971 8.94787 17.889 9.33326C17.8883 9.74827 17.8082 10.159 17.6536 10.5413C17.4989 10.9237 17.2726 11.2699 16.9881 11.5599L8.48451 20.3866C7.66027 21.2453 6.54423 21.7293 5.37951 21.7333Z" fill="#777777"/>
</svg>
