<svg width="19" height="22" viewBox="0 0 19 22" fill="none" xmlns="http://www.w3.org/2000/svg">
<path d="M9.5 0.958374C10.1293 0.958374 10.7523 1.08231 11.3337 1.32312C11.915 1.56392 12.4433 1.91687 12.8882 2.36182C13.3332 2.80677 13.6861 3.335 13.9269 3.91635C14.1677 4.4977 14.2917 5.12079 14.2917 5.75004V7.66671H17.1667C17.4208 7.66671 17.6646 7.76767 17.8443 7.9474C18.024 8.12712 18.125 8.37087 18.125 8.62504V20.125C18.125 20.3792 18.024 20.623 17.8443 20.8027C17.6646 20.9824 17.4208 21.0834 17.1667 21.0834H1.83333C1.57917 21.0834 1.33541 20.9824 1.15569 20.8027C0.975967 20.623 0.875 20.3792 0.875 20.125V8.62504C0.875 8.37087 0.975967 8.12712 1.15569 7.9474C1.33541 7.76767 1.57917 7.66671 1.83333 7.66671H4.70833V5.75004C4.70833 4.47921 5.21317 3.26043 6.11178 2.36182C7.01039 1.46321 8.22917 0.958374 9.5 0.958374ZM14.2917 10.5417H12.375V11.5C12.3753 11.7443 12.4688 11.9792 12.6365 12.1569C12.8042 12.3345 13.0333 12.4413 13.2772 12.4557C13.521 12.47 13.7611 12.3906 13.9484 12.2339C14.1357 12.0771 14.2561 11.8547 14.285 11.6122L14.2917 11.5V10.5417ZM6.625 10.5417H4.70833V11.5C4.7086 11.7443 4.80213 11.9792 4.96981 12.1569C5.13749 12.3345 5.36666 12.4413 5.6105 12.4557C5.85434 12.47 6.09445 12.3906 6.28176 12.2339C6.46907 12.0771 6.58944 11.8547 6.61829 11.6122L6.625 11.5V10.5417ZM9.5 2.87504C8.76667 2.875 8.06105 3.15519 7.5275 3.65827C6.99395 4.16136 6.67281 4.84931 6.62979 5.58137L6.625 5.75004V7.66671H12.375V5.75004C12.375 5.01671 12.0949 4.31109 11.5918 3.77754C11.0887 3.24399 10.4007 2.92285 9.66867 2.87983L9.5 2.87504Z" fill="#6D6875"/>
</svg>
