<svg width="16" height="16" viewBox="0 0 16 16" fill="none" xmlns="http://www.w3.org/2000/svg">
<path fill-rule="evenodd" clip-rule="evenodd" d="M3.33341 0.666664C1.86065 0.666664 0.666748 1.86057 0.666748 3.33333V12.6667C0.666748 14.1394 1.86065 15.3333 3.33341 15.3333H12.6667C14.1395 15.3333 15.3334 14.1394 15.3334 12.6667V3.33333C15.3334 1.86057 14.1395 0.666664 12.6667 0.666664H3.33341ZM12.6667 2H3.33341C2.59703 2 2.00008 2.59695 2.00008 3.33333V12.6667C2.00008 13.4031 2.59703 14 3.33341 14H12.6667C13.4031 14 14.0001 13.4031 14.0001 12.6667V3.33333C14.0001 2.59695 13.4031 2 12.6667 2ZM4.00008 8.04733L6.82848 10.8758L11.5425 6.16174L10.5997 5.21893L6.82848 8.9902L4.94289 7.10453L4.00008 8.04733Z" fill="#6D6875"/>
</svg>
