<svg width="13" height="14" viewBox="0 0 13 14" fill="none" xmlns="http://www.w3.org/2000/svg">
<g clip-path="url(#clip0_39_1792)">
<path d="M5.90413 1.26245L11.2661 2.02891L12.032 7.39141L7.053 12.3704C6.95142 12.472 6.81367 12.529 6.67004 12.529C6.52641 12.529 6.38866 12.472 6.28709 12.3704L0.924584 7.00791C0.823037 6.90633 0.765991 6.76858 0.765991 6.62495C0.765991 6.48132 0.823037 6.34357 0.924584 6.24199L5.90413 1.26245ZM6.28709 2.41187L2.07346 6.62495L6.67004 11.221L10.8831 7.00791L10.309 2.98603L6.28709 2.41187ZM7.43542 5.85903C7.23221 5.65576 7.11808 5.38008 7.11813 5.09266C7.11816 4.95034 7.14621 4.80942 7.2007 4.67794C7.25519 4.54646 7.33504 4.42701 7.43569 4.32639C7.53634 4.22577 7.65583 4.14596 7.78732 4.09152C7.91882 4.03708 8.05975 4.00908 8.20207 4.0091C8.4895 4.00915 8.76513 4.12338 8.96834 4.32666C9.17154 4.52994 9.28567 4.80561 9.28562 5.09304C9.28557 5.38047 9.17134 5.6561 8.96806 5.85931C8.76479 6.06251 8.48911 6.17664 8.20169 6.17659C7.91426 6.17654 7.63862 6.06231 7.43542 5.85903Z" fill="#E5989B"/>
</g>
<defs>
<clipPath id="clip0_39_1792">
<rect width="13" height="13" fill="white" transform="translate(0 0.124756)"/>
</clipPath>
</defs>
</svg>
