<svg width="13" height="13" viewBox="0 0 13 13" fill="none" xmlns="http://www.w3.org/2000/svg">
<g clip-path="url(#clip0_39_1783)">
<path d="M6.5 0.541504L10.9509 1.53059C11.1984 1.58584 11.375 1.80521 11.375 2.05925V7.46888C11.375 8.55546 10.8317 9.57055 9.92767 10.1729L6.5 12.4582L3.07233 10.1729C2.16775 9.57 1.625 8.55546 1.625 7.46942V2.05925C1.625 1.80521 1.80158 1.58584 2.04913 1.53059L6.5 0.541504ZM6.5 1.65138L2.70833 2.49367V7.46888C2.70833 8.19309 3.07017 8.86963 3.67304 9.27155L6.5 11.1565L9.32696 9.27155C9.92983 8.86963 10.2917 8.19363 10.2917 7.46942V2.49367L6.5 1.65192V1.65138ZM8.9115 4.45342L9.67796 5.21934L6.23079 8.6665L3.9325 6.36821L4.69842 5.6023L6.23025 7.13413L8.9115 4.45288V4.45342Z" fill="#E5989B"/>
</g>
<defs>
<clipPath id="clip0_39_1783">
<rect width="13" height="13" fill="white"/>
</clipPath>
</defs>
</svg>
