<svg width="13" height="11" viewBox="0 0 13 11" fill="none" xmlns="http://www.w3.org/2000/svg">
<path d="M10.6493 7.20912C10.4821 7.12151 10.2756 7.18607 10.1881 7.35324C9.43208 8.79651 7.95118 9.6931 6.32335 9.6931C3.92221 9.6931 1.96831 7.74198 1.96362 5.34191L2.2378 5.6161C2.30452 5.68282 2.39197 5.71619 2.47939 5.71619C2.56682 5.71619 2.65429 5.68284 2.72098 5.6161C2.85442 5.48266 2.85442 5.26633 2.72098 5.1329L1.8638 4.27574C1.73039 4.1423 1.51404 4.1423 1.3806 4.27574L0.523418 5.1329C0.389981 5.26631 0.389981 5.48266 0.523418 5.6161C0.656832 5.74954 0.873183 5.74951 1.00662 5.6161L1.28024 5.3425C1.28263 6.68612 1.8069 7.94899 2.75725 8.89934C3.70978 9.85187 4.97625 10.3765 6.32335 10.3765C8.20623 10.3765 9.91904 9.33953 10.7934 7.67034C10.881 7.50317 10.8165 7.29668 10.6493 7.20912Z" fill="white"/>
<path d="M11.9864 4.76036C11.8529 4.62692 11.6366 4.62692 11.5032 4.76036L11.2295 5.03398C11.2271 3.69034 10.7029 2.42749 9.75251 1.47712C8.79999 0.524591 7.53353 0 6.18642 0C4.30354 0 2.59072 1.03693 1.71634 2.70612C1.62876 2.87327 1.69329 3.07978 1.86046 3.16734C2.02756 3.2549 2.23408 3.19037 2.32166 3.02322C3.07768 1.57995 4.55859 0.683358 6.18642 0.683358C8.58752 0.683358 10.5414 2.63448 10.5462 5.0345L10.272 4.76034C10.1386 4.6269 9.92223 4.6269 9.78879 4.76034C9.65536 4.89378 9.65536 5.11011 9.78879 5.24354L10.646 6.10072C10.7127 6.16744 10.8001 6.20081 10.8876 6.20081C10.975 6.20081 11.0625 6.16747 11.1292 6.10072L11.9863 5.24354C12.1198 5.11011 12.1198 4.89378 11.9864 4.76036Z" fill="white"/>
<path d="M6.72221 4.79568C6.4131 4.68641 6.07127 4.55446 5.87956 4.4041C5.81929 4.35685 5.79325 4.24866 5.81469 4.13488C5.82537 4.07811 5.87535 3.88839 6.06942 3.82992C6.38803 3.73397 6.60656 3.86124 6.68572 3.92042C6.83688 4.03338 7.05095 4.00246 7.16395 3.85133C7.27696 3.70019 7.24603 3.48607 7.09489 3.37307C7.02318 3.31945 6.84353 3.20191 6.58599 3.14483V3.00574C6.58599 2.81704 6.43301 2.66406 6.24432 2.66406C6.05562 2.66406 5.90264 2.81704 5.90264 3.00574V3.16708C5.89252 3.16991 5.8825 3.1725 5.87232 3.17558C5.49811 3.28831 5.21871 3.60739 5.14315 4.0083C5.07361 4.37731 5.19418 4.735 5.45782 4.94179C5.67503 5.11215 5.97537 5.25647 6.49447 5.43998C6.84007 5.56214 6.83257 5.84186 6.8133 5.95644C6.77426 6.18875 6.57882 6.43982 6.24204 6.44208C5.91177 6.4444 5.80886 6.42793 5.55515 6.26196C5.39725 6.15864 5.18548 6.2029 5.08215 6.36082C4.97885 6.51875 5.02311 6.7305 5.18104 6.8338C5.45467 7.01282 5.65658 7.08543 5.90264 7.11192V7.2681C5.90264 7.45679 6.05562 7.60977 6.24432 7.60977C6.43301 7.60977 6.58599 7.45679 6.58599 7.2681V7.0791C6.77424 7.02728 6.94578 6.93261 7.09238 6.7979C7.30015 6.60701 7.44035 6.34841 7.4872 6.06971C7.58249 5.50312 7.27504 4.9911 6.72221 4.79568Z" fill="white"/>
</svg>
