<svg width="13" height="14" viewBox="0 0 13 14" fill="none" xmlns="http://www.w3.org/2000/svg">
<g clip-path="url(#clip0_39_1789)">
<path d="M9.75004 4.54142H11.375C11.5187 4.54142 11.6565 4.59849 11.7581 4.70007C11.8596 4.80166 11.9167 4.93943 11.9167 5.08309V11.5831C11.9167 11.7267 11.8596 11.8645 11.7581 11.9661C11.6565 12.0677 11.5187 12.1248 11.375 12.1248H1.62504C1.48138 12.1248 1.34361 12.0677 1.24202 11.9661C1.14044 11.8645 1.08337 11.7267 1.08337 11.5831V2.91642C1.08337 2.77276 1.14044 2.63499 1.24202 2.53341C1.34361 2.43182 1.48138 2.37476 1.62504 2.37476H9.75004V4.54142ZM2.16671 5.62476V11.0414H10.8334V5.62476H2.16671ZM2.16671 3.45809V4.54142H8.66671V3.45809H2.16671ZM8.12504 7.79142H9.75004V8.87476H8.12504V7.79142Z" fill="#E5989B"/>
</g>
<defs>
<clipPath id="clip0_39_1789">
<rect width="13" height="13" fill="white" transform="translate(0 0.75)"/>
</clipPath>
</defs>
</svg>
